<?xml version="1.0" standalone="no"?>
<!DOCTYPE svg PUBLIC "-//W3C//DTD SVG 20010904//EN"
 "http://www.w3.org/TR/2001/REC-SVG-20010904/DTD/svg10.dtd">
<svg version="1.0" xmlns="http://www.w3.org/2000/svg"
 width="512.000000pt" height="512.000000pt" viewBox="0 0 512.000000 512.000000"
 preserveAspectRatio="xMidYMid meet">

<g transform="translate(0.000000,512.000000) scale(0.100000,-0.100000)"
fill="#000000" stroke="none">
<path d="M2305 5113 c-503 -39 -866 -120 -1161 -258 -91 -42 -114 -63 -114
-105 0 -28 43 -70 73 -70 13 0 62 18 108 39 235 110 543 187 912 228 210 23
674 23 885 0 673 -75 1187 -296 1309 -564 141 -307 -316 -631 -1068 -757 -493
-83 -1081 -71 -1539 30 -465 104 -807 289 -906 490 -53 108 -32 231 56 331 40
45 41 93 4 122 -41 32 -72 27 -115 -20 -48 -52 -104 -159 -118 -227 -7 -35
-11 -226 -11 -555 0 -413 3 -513 15 -560 13 -50 13 -64 0 -114 -22 -84 -22
-1042 0 -1126 13 -50 13 -64 0 -114 -22 -83 -22 -539 0 -570 17 -24 64 -38 96
-28 25 8 49 61 49 111 l0 36 51 -46 c234 -210 673 -362 1254 -433 211 -25 737
-25 945 0 594 74 1024 221 1259 433 l51 46 0 -314 c0 -359 -2 -369 -78 -463
-221 -274 -818 -468 -1514 -494 -636 -23 -1180 67 -1571 261 -129 63 -208 118
-283 193 -92 93 -107 133 -114 291 -6 137 -13 158 -55 174 -26 10 -72 -7 -90
-33 -18 -26 -21 -199 -4 -279 68 -326 549 -602 1239 -712 270 -43 370 -51 695
-50 400 0 654 28 965 106 549 136 906 383 960 663 16 87 9 1088 -8 1131 -10
25 -10 41 3 89 22 88 22 1042 0 1130 -13 48 -13 64 -3 89 17 43 24 1044 8
1131 -87 448 -932 782 -1960 773 -102 -1 -203 -3 -225 -5z m-1290 -1372 c507
-291 1430 -402 2244 -271 431 70 778 200 1001 377 l80 63 0 -317 c0 -313 -1
-319 -24 -368 -49 -104 -148 -196 -303 -282 -92 -52 -118 -79 -111 -117 5 -23
-2 -27 -86 -59 l-91 -35 -22 24 c-26 28 -67 31 -139 9 -126 -38 -385 -85 -594
-107 -163 -17 -686 -17 -840 1 -447 50 -800 151 -1055 302 -115 67 -225 173
-265 252 l-30 60 0 319 0 318 80 -63 c44 -35 114 -83 155 -106z m-73 -1197
c92 -62 291 -154 423 -198 421 -137 992 -201 1480 -166 652 48 1176 211 1448
450 l47 42 0 -320 0 -319 -32 -63 c-131 -263 -629 -474 -1303 -552 -174 -20
-754 -17 -935 5 -647 80 -1130 290 -1258 547 l-32 63 0 319 0 320 47 -42 c26
-23 78 -62 115 -86z"/>
<path d="M952 3427 c-27 -29 -29 -80 -3 -106 26 -26 137 -87 232 -127 193 -81
381 -136 617 -179 162 -30 191 -26 212 26 16 38 -2 83 -38 98 -15 5 -79 19
-142 31 -270 49 -514 128 -698 225 -114 61 -148 67 -180 32z"/>
<path d="M3924 3406 c-75 -33 -49 -146 33 -146 46 0 77 30 77 74 0 62 -53 96
-110 72z"/>
<path d="M3440 3240 c-26 -26 -34 -63 -20 -89 41 -77 150 -54 150 32 0 63 -86
101 -130 57z"/>
<path d="M955 2185 c-33 -32 -33 -78 0 -111 34 -34 265 -144 395 -188 176 -59
427 -119 558 -132 47 -5 61 -3 79 12 35 29 40 75 11 107 -20 24 -44 31 -198
61 -284 57 -474 118 -668 218 -62 32 -122 58 -133 58 -11 0 -31 -11 -44 -25z"/>
<path d="M3902 2147 c-48 -51 -14 -127 57 -127 48 0 75 28 75 77 0 67 -86 100
-132 50z"/>
<path d="M3440 1992 c-34 -34 -37 -50 -15 -91 24 -48 81 -56 120 -16 47 46 23
118 -42 131 -27 5 -37 1 -63 -24z"/>
<path d="M973 960 c-51 -21 -59 -95 -13 -133 39 -33 231 -127 340 -165 197
-71 469 -137 611 -149 63 -5 66 -4 87 22 28 35 28 67 0 99 -19 21 -42 28 -143
46 -270 47 -507 122 -704 221 -143 73 -143 73 -178 59z"/>
<path d="M3905 905 c-45 -44 -25 -117 35 -130 53 -12 108 41 96 91 -16 63 -87
84 -131 39z"/>
<path d="M3473 772 c-35 -5 -66 -51 -59 -87 13 -65 96 -89 135 -39 48 62 1
139 -76 126z"/>
</g>
</svg>
