<?xml version="1.0" standalone="no"?>
<!DOCTYPE svg PUBLIC "-//W3C//DTD SVG 20010904//EN"
 "http://www.w3.org/TR/2001/REC-SVG-20010904/DTD/svg10.dtd">
<svg version="1.0" xmlns="http://www.w3.org/2000/svg"
 width="267.000000pt" height="150.000000pt" viewBox="0 0 267.000000 150.000000"
 preserveAspectRatio="xMidYMid meet">

<g transform="translate(0.000000,150.000000) scale(0.100000,-0.100000)"
fill="#000000" stroke="none">
<path d="M1290 865 l0 -471 216 -22 c119 -13 219 -21 222 -18 4 4 -398 911
-429 966 -5 8 -9 -197 -9 -455z"/>
<path d="M1082 644 c-79 -157 -141 -288 -139 -290 2 -2 67 6 145 18 l142 22 0
268 c0 147 -1 268 -3 268 -1 0 -66 -129 -145 -286z"/>
<path d="M1082 214 l148 -74 247 74 248 75 -395 0 -395 0 147 -75z"/>
</g>
</svg>
