<?xml version="1.0" standalone="no"?>
<!DOCTYPE svg PUBLIC "-//W3C//DTD SVG 20010904//EN"
 "http://www.w3.org/TR/2001/REC-SVG-20010904/DTD/svg10.dtd">
<svg version="1.0" xmlns="http://www.w3.org/2000/svg"
 width="119.000000pt" height="89.000000pt" viewBox="0 0 119.000000 89.000000"
 preserveAspectRatio="xMidYMid meet">

<g transform="translate(0.000000,89.000000) scale(0.100000,-0.100000)"
fill="#000000" stroke="none">
<path d="M185 851 c-39 -23 -83 -75 -91 -107 -11 -42 1 -36 34 15 17 28 46 60
66 73 56 36 47 54 -9 19z"/>
<path d="M202 810 c-34 -21 -72 -74 -72 -100 1 -8 7 -1 14 15 14 31 56 74 91
93 11 6 16 12 10 12 -5 0 -25 -9 -43 -20z"/>
<path d="M218 784 c-27 -14 -58 -60 -58 -86 0 -7 10 3 21 22 12 19 27 38 33
42 53 32 56 51 4 22z"/>
<path d="M327 733 l112 -4 4 -27 c4 -25 4 -24 6 6 l1 32 -117 -2 -118 -2 112
-3z"/>
<path d="M648 733 c6 -2 18 -2 25 0 6 3 1 5 -13 5 -14 0 -19 -2 -12 -5z"/>
<path d="M738 733 c7 -3 16 -2 19 1 4 3 -2 6 -13 5 -11 0 -14 -3 -6 -6z"/>
<path d="M602 714 c-12 -8 -27 -25 -33 -37 l-10 -22 18 22 c10 12 27 29 38 37
27 20 16 20 -13 0z"/>
<path d="M783 719 c10 -6 27 -25 38 -42 10 -18 19 -27 19 -20 0 16 -49 73 -63
73 -7 0 -4 -5 6 -11z"/>
<path d="M213 640 c0 -30 2 -43 4 -27 2 15 2 39 0 55 -2 15 -4 2 -4 -28z"/>
<path d="M659 653 c-13 -17 -13 -17 6 -3 11 8 22 16 24 17 2 2 0 3 -6 3 -6 0
-17 -8 -24 -17z"/>
<path d="M711 667 c2 -1 13 -9 24 -17 19 -14 19 -14 6 3 -7 9 -18 17 -24 17
-6 0 -8 -1 -6 -3z"/>
<path d="M333 653 c20 -2 54 -2 75 0 20 2 3 4 -38 4 -41 0 -58 -2 -37 -4z"/>
<path d="M546 635 c-3 -9 -6 -22 -5 -28 0 -7 5 -1 10 12 5 13 8 26 5 28 -2 2
-6 -3 -10 -12z"/>
<path d="M836 625 c-3 -8 -1 -15 4 -15 6 0 10 7 10 15 0 8 -2 15 -4 15 -2 0
-6 -7 -10 -15z"/>
<path d="M272 610 c0 -14 2 -19 5 -12 2 6 2 18 0 25 -3 6 -5 1 -5 -13z"/>
<path d="M636 615 c-3 -9 -6 -26 -5 -38 1 -14 4 -9 9 13 9 37 7 52 -4 25z"/>
<path d="M768 603 c6 -2 18 -2 25 0 6 3 1 5 -13 5 -14 0 -19 -2 -12 -5z"/>
<path d="M360 591 c49 -10 78 -27 85 -52 4 -11 9 -18 12 -16 10 10 -18 47 -47
62 -16 8 -42 14 -57 14 -25 -1 -25 -2 7 -8z"/>
<path d="M295 580 c-3 -6 1 -7 9 -4 18 7 21 14 7 14 -6 0 -13 -4 -16 -10z"/>
<path d="M532 530 c-1 -39 5 -77 14 -95 8 -16 11 -21 8 -10 -4 11 -10 54 -14
95 l-7 75 -1 -65z"/>
<path d="M201 543 c-1 -25 3 -33 17 -33 11 0 13 3 6 8 -7 4 -14 18 -17 32 -4
21 -4 20 -6 -7z"/>
<path d="M702 513 c1 -37 1 -37 5 -5 l4 32 70 0 69 0 0 -101 c0 -96 -1 -101
-20 -96 -11 3 -20 1 -20 -4 0 -5 11 -9 25 -9 l25 0 0 110 0 110 -80 0 -80 0 2
-37z"/>
<path d="M276 515 c-11 -8 -16 -15 -10 -15 5 0 18 7 28 15 11 8 16 15 10 15
-5 0 -18 -7 -28 -15z"/>
<path d="M958 498 c-2 -28 -8 -34 -30 -36 -16 -2 -28 -9 -28 -17 0 -8 12 -15
28 -17 22 -2 28 -8 30 -35 2 -20 9 -33 17 -33 8 0 15 13 17 33 2 27 8 33 31
35 15 2 27 9 27 17 0 8 -12 15 -27 17 -23 2 -29 8 -31 36 -2 19 -9 32 -17 32
-8 0 -15 -13 -17 -32z"/>
<path d="M463 470 c0 -25 2 -35 4 -22 2 12 2 32 0 45 -2 12 -4 2 -4 -23z"/>
<path d="M631 488 c-1 -35 43 -88 74 -88 13 0 26 4 29 8 3 5 -7 7 -22 4 -33
-4 -61 22 -72 70 -7 30 -8 31 -9 6z"/>
<path d="M381 464 c0 -11 3 -14 6 -6 3 7 2 16 -1 19 -3 4 -6 -2 -5 -13z"/>
<path d="M223 443 c9 -2 25 -2 35 0 9 3 1 5 -18 5 -19 0 -27 -2 -17 -5z"/>
<path d="M187 420 c8 -30 21 -34 15 -5 -2 14 -8 25 -12 25 -5 0 -6 -9 -3 -20z"/>
<path d="M282 414 c10 -10 20 -16 22 -13 3 3 -5 11 -17 18 -21 13 -21 12 -5
-5z"/>
<path d="M597 363 c18 -18 41 -33 50 -32 13 0 11 3 -7 10 -14 6 -36 20 -50 32
-14 12 -11 7 7 -10z"/>
<path d="M429 373 c-8 -9 -27 -22 -44 -29 -18 -8 -23 -13 -13 -14 16 0 92 59
77 60 -4 0 -13 -7 -20 -17z"/>
<path d="M214 371 c7 -11 46 -35 46 -28 0 3 -12 12 -26 22 -15 9 -23 12 -20 6z"/>
<path d="M765 360 c-10 -11 -25 -20 -34 -21 -11 0 -12 -2 -3 -6 7 -3 24 5 37
17 14 13 29 19 36 15 8 -5 10 -4 5 3 -10 17 -20 15 -41 -8z"/>
<path d="M278 333 c7 -3 16 -2 19 1 4 3 -2 6 -13 5 -11 0 -14 -3 -6 -6z"/>
<path d="M433 270 c-46 -19 -71 -93 -54 -158 13 -46 36 -70 79 -78 26 -5 36
-1 62 24 16 17 30 38 30 46 0 25 -32 19 -55 -10 -18 -23 -25 -25 -42 -16 -24
13 -35 68 -23 114 16 52 53 59 70 12 7 -16 14 -21 29 -17 27 7 26 26 -1 57
-26 29 -63 39 -95 26z"/>
<path d="M10 250 c0 -16 7 -20 30 -20 l30 0 0 -95 c0 -88 1 -95 20 -95 19 0
20 7 20 95 l0 95 30 0 c23 0 30 4 30 20 0 18 -7 20 -80 20 -73 0 -80 -2 -80
-20z"/>
<path d="M202 161 c-18 -61 -32 -112 -32 -115 0 -3 9 -6 19 -6 12 0 21 9 25
26 6 22 11 25 44 22 30 -2 38 -7 40 -25 3 -17 10 -23 28 -23 29 0 29 -3 5 79
-11 36 -25 85 -31 109 -9 37 -14 42 -39 42 -27 0 -29 -4 -59 -109z m72 -4 c5
-20 2 -29 -9 -34 -27 -10 -35 9 -24 52 12 41 20 37 33 -18z"/>
<path d="M570 251 c0 -14 8 -21 28 -23 l27 -3 3 -92 c2 -85 4 -93 22 -93 18 0
20 7 20 95 0 95 0 95 25 95 18 0 25 5 25 20 0 18 -7 20 -75 20 -67 0 -75 -2
-75 -19z"/>
<path d="M760 155 l0 -115 25 0 25 0 0 115 0 115 -25 0 -25 0 0 -115z"/>
<path d="M860 155 l0 -115 65 0 c58 0 65 2 65 20 0 17 -7 20 -40 20 l-40 0 0
95 c0 95 0 95 -25 95 l-25 0 0 -115z"/>
<path d="M1030 155 l0 -115 75 0 c68 0 75 2 75 20 0 17 -7 20 -50 20 -49 0
-50 1 -50 30 0 28 2 30 40 30 33 0 40 3 40 20 0 17 -7 20 -40 20 -36 0 -40 3
-40 25 0 23 3 25 50 25 43 0 50 3 50 20 0 18 -7 20 -75 20 l-75 0 0 -115z"/>
</g>
</svg>
